<?xml version="1.0" encoding="utf-8" ?><svg xmlns="http://www.w3.org/2000/svg" xmlns:xlink="http://www.w3.org/1999/xlink" width="1024" height="1024" viewBox="0 0 1024 1024"><path fill="#3D405B" d="M511.611 201.764C514.614 202.247 526.57 215.54 529.618 218.637L562.621 251.692L748.389 437.605L797.671 486.724C803.938 492.993 816.917 505.389 822.046 511.796C818.247 516.302 812.028 522.198 807.723 526.494L783.368 550.79L707.394 626.405L511.825 822.504C503.189 815.051 489.684 800.644 481.274 792.149L419.827 729.86L285.648 596.889L227.944 539.395C218.923 530.396 210.132 521.204 200.901 512.422C203.202 509.324 209.219 503.499 212.097 500.615L230.98 481.766C253.815 459.418 276.516 436.932 299.079 414.309L511.611 201.764ZM432.695 392.889C441.01 400.988 449.059 409.488 457.352 417.616C461.464 421.646 465.893 426.466 470.321 430.048C471.568 437.764 471.009 463.146 471.003 471.802C457.368 471.539 443.729 471.508 430.093 471.709C418.602 460.346 402.247 444.415 391.915 432.568C373.497 432.494 355.109 431.983 336.73 432.215C331.73 432.278 324.291 432.187 319.45 432.514C314.796 436.325 310.274 440.692 306 444.943C289.537 461.318 272.768 477.385 256.404 493.856C250.517 499.782 245.294 506.324 239.616 512.376C246.613 517.964 257.39 530.263 264.467 537.171C282.208 554.486 304.584 574.125 320.826 592.294L374.36 592.147C379.754 592.085 387.291 592.359 392.435 592.066C405.254 580.613 418.5 564.159 430.866 553.092C441.335 552.745 460.616 552.196 470.628 552.952C470.513 566.199 470.096 581.006 470.514 594.124L431.765 632.052C432.116 655.563 432.031 679.696 431.966 703.235C450.367 723.965 470.752 742.853 489.835 762.958C497.333 770.858 506.004 777.738 513.23 786.024C520.093 779.255 527.602 772.944 534.383 766.269C543.315 757.477 552.3 748.163 561.053 739.151C567.693 732.251 574.28 725.299 580.813 718.297C583.795 715.124 588.208 710.098 591.315 707.475C592.355 684.036 591.175 655.249 591.311 631.296C580.084 618.611 564.612 605.476 553.036 592.34C552.743 579.313 553.286 566.063 552.772 553.012C566.195 552.615 580.478 552.743 593.961 552.734C606.684 564.851 620.981 579.911 633.242 592.493C640.859 592.107 704.697 593.327 707.535 591.923C729.107 569.09 752.061 547.76 774.011 525.34C778.568 520.686 782.893 515.737 787.818 511.471C768.577 491.206 748.169 472.887 728.601 453.024C723.99 448.343 712.286 437.278 709.293 432.391C703.431 432.592 696.386 432.154 690.309 432.154C671.493 432.038 652.675 432.141 633.861 432.463C621.231 443.303 607.132 459.076 594.576 470.941C589.385 471.609 583.244 471.254 577.937 471.196C569.813 471.036 561.685 471.149 553.569 471.534C552.82 458.406 553.01 443.376 553.171 430.18C561.615 422 569.79 413.415 578.149 405.149C582.585 400.762 587.388 395.526 592.097 391.57C592.058 367.041 591.822 341.279 592.25 316.831C576.713 302.45 563.658 288.032 549.138 272.608L513.766 235.505C499.002 250.13 484.577 264.85 470.114 279.768C457.989 292.275 445.034 304.269 432.478 316.386L432.695 392.889ZM459.017 434.775C452.432 429.305 444.167 420.261 438.136 413.934C432.492 408.012 426.6 402.352 421.021 396.521C420.868 393.032 420.894 389.368 420.935 385.867C421.164 366.484 420.465 347.121 420.285 327.751C412.717 337.387 401.793 348.109 393.05 356.974C378.01 372.219 362.741 387.236 347.249 402.021C340.792 408.158 333.609 414.298 327.537 420.667C334.272 420.428 343.298 420.849 350.293 420.869L395.599 420.965C397.197 422.375 398.992 424.413 400.475 425.997C411.235 437.486 422.978 448.092 433.735 459.566C442.113 459.676 450.492 459.68 458.87 459.579C459.245 451.95 459.008 442.537 459.017 434.775ZM435.461 565.109C432.553 567.266 426.398 573.534 423.521 576.356C414.497 585.239 405.59 594.241 396.803 603.359C389.65 602.859 380.72 603.094 373.361 603.088C359.204 603.032 345.047 603.205 330.895 603.606C353.33 624.814 374.522 648.086 396.742 669.604C402.025 674.72 415.226 689.117 420.515 692.551C420.251 671.7 420.871 649.215 420.832 628.041C426.572 621.877 433.735 615.308 439.735 609.113C444.925 603.754 453.015 594.772 458.482 590.173C458.605 581.748 458.612 573.321 458.504 564.895C450.923 565.123 443.13 564.927 435.461 565.109ZM697.484 604.001C674.67 603.911 651.642 604.252 628.88 604.003C622.905 599.08 618.857 594.141 613.53 588.797C605.84 581.084 597.65 572.16 589.67 564.865L564.671 564.833C565.057 571.638 564.974 580.61 564.883 587.491C567.741 591.572 573.927 597.25 577.505 600.953C585.809 609.545 594.819 617.919 603.1 626.517C603.906 648.964 602.343 674.856 603.508 696.493C611.173 689.74 618.54 681.388 626.021 674.276C650.252 651.238 672.596 626.348 697.484 604.001ZM589.572 460.029C594.2 456.205 598.97 451.491 603.144 447.151C611.795 438.159 621.34 429.551 629.81 420.437C653.193 420.745 676.579 420.772 699.963 420.517C685.818 410.136 668.273 393.031 655.844 380.694C638.188 363.488 621.088 345.72 604.572 327.416C604.171 336.171 605.152 391.999 603.215 395.603C600.798 400.099 588.576 410.336 584.165 414.67C577.611 421.016 571.224 427.533 565.01 434.213C564.976 442.83 564.994 451.447 565.066 460.064C573.234 459.914 581.404 459.903 589.572 460.029Z"/><path fill="#3D405B" d="M511.277 258.675C516.019 258.67 520.689 259.832 524.876 262.058C547.617 274.182 545.805 307.162 518.427 314.32C517.195 347.417 518.913 381.549 518.361 414.758C518.089 431.148 518.043 448.244 518.455 464.622C522.998 465.172 526.194 465.96 530.496 467.355C531.091 448.235 530.145 428.09 530.666 408.827C533.069 405.753 550.307 388.743 553.474 386.223C553.691 380.361 553.69 374.492 553.47 368.63C548.938 364.767 544.055 360.106 539.622 356.049C539.098 351.932 539.209 346.678 539.178 342.444C548.05 336.533 549.819 330.157 561.724 328.041C565.845 330.738 575.543 339.438 579.102 342.96C578.95 347.481 578.875 352.004 578.879 356.528C575.278 359.88 568.491 365.374 564.478 368.043L564.468 389.478C560.321 394.632 547.964 406.927 542.624 412.646C542.02 432.756 542.648 453.251 542.493 473.429C546.478 476.758 548.372 478.502 551.31 482.764C564.681 483.593 578.823 482.441 592.27 482.827C598.704 483.012 605.452 483.01 611.875 482.782C616.054 478.638 631.051 463.457 634.936 460.711L657.705 460.592C669.309 432.952 702.21 450.084 695.522 472.274C690.877 487.688 666.951 491.495 657.93 472.545C651.008 471.916 645.061 472.06 638.147 472.181C631.973 478.59 622.736 488.681 616.301 494.302C596.585 494.011 578.265 494.317 558.587 494.661C559.895 498.423 561.164 502.198 562.392 505.986L708.91 505.979C711.626 496.513 717.167 488.046 727.07 485.378C763.528 475.556 779.039 527.005 744.149 539.382C737.244 541.831 726.519 539.705 720.53 535.814C713.474 531.231 710.564 525.701 708.784 517.582C659.764 516.94 610.736 516.993 561.717 517.741C561.259 522.354 560.83 524.879 559.744 529.339C577.893 529.377 596.042 529.509 614.19 529.733C618.353 532.169 631.91 547.455 637.801 552.31C644.294 552.618 650.796 552.706 657.294 552.574C659.294 547.306 662.422 541.955 667.69 539.554C678.293 534.721 689.962 539.987 694.407 550.29C696.326 554.805 696.359 559.901 694.496 564.44C690.205 575.182 677.868 579.833 667.55 574.798C663.232 572.679 659.898 568.978 658.24 564.464C649.812 563.882 641.684 564.312 633.265 564.083C628.947 560.66 614.59 545.697 610.254 541.093L554.417 541.046C549.256 547.506 549.04 548.783 542.451 553.755C541.785 572.514 542.594 591.556 542.097 610.397C546.756 614.85 561.89 630.396 564.961 634.967C564.682 642.031 564.85 649.98 564.864 657.076C569.784 659.271 573.291 661.557 575.759 666.713C577.807 671.087 578.013 676.1 576.33 680.627C570.558 696.563 548.036 697.746 541.366 681.971C539.7 678.03 540.059 671.209 541.691 667.243C544.007 661.613 548.651 659.313 553.902 657.05C554.086 651.321 554.037 645.949 553.966 640.223C546.306 631.541 537.253 623.909 530.477 614.892C530.842 610.455 530.571 601.338 530.564 596.563L530.525 560.01C525.412 561.595 523.175 561.958 517.872 562.227C518.074 570.9 517.77 580.58 517.784 589.379L517.867 662.652C517.857 678.128 517.586 694.262 518.024 709.647C545.491 715.197 546.623 757.08 517.046 763.887C487.571 767.94 471.385 728.503 498.575 712.98C500.718 711.757 503.753 710.818 506.116 709.996C506.305 703.17 506.229 696.114 506.188 689.278C505.935 647.368 506.55 605.314 505.864 563.415C501.868 562.421 497.901 561.318 493.966 560.105C494.005 578.686 493.921 597.266 493.716 615.845C485.852 622.164 477.688 631.343 470.528 638.769C470.438 645.001 470.426 651.235 470.492 657.468C475.604 659.437 478.977 661.25 481.836 666.335C483.987 670.356 484.905 677.435 483.102 681.795C473.878 704.11 437.917 692.506 448.162 667.942C450.478 662.39 453.654 660.444 458.926 658.089L459.03 633.252C466.973 626.12 474.963 616.747 482.523 610.343C481.854 604.511 482.133 594.761 482.142 588.61L482.102 554.83C476.804 549.541 474.426 547.379 470.216 541.201C466.794 541.031 462.851 541.019 459.434 541.128C444.167 541.615 427.993 540.399 412.818 541.448C404.926 549.649 397.597 557.354 389.101 564.945C381.466 565.125 373.454 565.042 365.789 565.082C361.425 574.005 353.675 579.027 343.537 576.928C338.789 575.925 334.682 572.973 332.22 568.792C329.488 564.25 328.706 558.796 330.053 553.669C333.621 540.212 351.149 536.353 360.543 546.239C362.557 548.358 363.702 550.894 364.969 553.507C372.101 553.632 378.405 553.65 385.525 553.394C393.214 545.313 401.1 537.423 409.178 529.73C427.558 529.784 445.939 529.72 464.318 529.538C462.747 525.171 462.405 522.266 461.916 517.698C445.216 518.223 425.024 517.593 408.046 517.566C377.163 517.474 346.28 517.61 315.399 517.974C315.253 518.558 315.094 519.138 314.924 519.715C303.009 559.922 246.225 538.847 261.16 502.042C264.048 495.056 269.639 489.535 276.662 486.735C294.119 479.812 309.415 489.346 315.35 506.506C363.975 506.858 413.295 505.511 461.842 506.25C462.872 502.474 463.845 498.563 465.287 494.936C452.411 494.669 439.418 495.017 426.541 494.935C421.37 494.902 413.338 495.241 408.427 494.723C400.547 486.922 392.468 479.029 385.069 470.782C379.274 470.306 371.841 470.704 365.792 470.607C364.138 474.641 362.24 478.173 358.681 480.819C349.775 487.439 337.435 484.504 331.717 475.401C328.968 471.059 328.138 465.773 329.423 460.796C332.041 450.835 343.235 444.307 353.164 447.455C359.581 449.49 362.215 453.56 365.094 459.158L388.257 459.102C395.374 465.324 405.78 476.164 412.784 483.016C432.354 482.605 452.474 483.505 471.929 482.867C474.974 479.452 478.071 476.055 481.974 473.61C482.459 459.995 481.817 446.003 482.073 432.35C482.189 426.174 482.22 419.398 481.735 413.268C475.069 405.123 465.227 397.228 459.093 389.128C458.822 382.531 458.955 375.053 458.935 368.387C454.524 364.76 449.93 361.106 445.998 356.98C445.974 351.911 445.722 347.909 445.331 342.896C452.39 335.687 456.37 330.75 466.29 328.022C470.371 330.502 480.903 339.115 484.327 342.553L484.426 355.67C480.986 359.88 474.528 365.52 469.872 368.365L469.902 384.141C475.34 391.596 486.765 402.003 493.419 409.494C494.515 425.752 493.968 450.037 494.012 466.976C498.661 465.54 501.711 464.853 506.503 463.922C506.967 414.181 506.942 364.438 506.428 314.698C502.25 313.387 498.719 312.017 495.165 309.432C489.168 305.043 485.226 298.392 484.254 291.024C481.987 273.738 495.033 260.981 511.277 258.675ZM511.759 281.831C508.788 281.99 506.499 284.514 506.632 287.488C506.765 290.461 509.269 292.771 512.243 292.665C515.255 292.558 517.602 290.015 517.467 287.004C517.333 283.993 514.769 281.669 511.759 281.831ZM515.526 752.224C523.629 750.391 528.73 742.358 526.944 734.244C525.157 726.131 517.154 720.983 509.03 722.722C500.84 724.476 495.641 732.56 497.442 740.74C499.243 748.92 507.356 754.072 515.526 752.224ZM516.789 549.255C536.519 546.565 550.354 528.42 547.724 508.682C545.094 488.944 526.99 475.054 507.244 477.624C487.414 480.205 473.451 498.403 476.093 518.226C478.734 538.049 496.974 551.956 516.789 549.255ZM559.756 355.984C569.022 351.61 565.15 342.923 558.469 342.825C555.083 345.053 551.961 347.593 554.475 352.577C555.174 353.964 558.169 355.862 559.756 355.984ZM464.963 356.804C466.225 355.725 468.693 353.765 469.536 352.425C472.558 347.626 468.128 344.034 463.781 342.734C461.365 344.771 459.277 345.958 458.778 349.461C458.37 352.323 462.589 355.991 464.963 356.804ZM559.978 680.538C565.699 677.028 564 671.135 558.532 671.003C554.252 674.902 553.244 678.781 559.978 680.538ZM344.746 554.491C342.309 555.871 341.435 558.954 342.785 561.407C344.134 563.861 347.206 564.774 349.676 563.456C351.303 562.588 352.336 560.913 352.383 559.07C352.429 557.227 351.48 555.502 349.899 554.554C348.318 553.606 346.349 553.582 344.746 554.491ZM349.314 471.093C355.295 466.1 353.278 459.826 344.659 460.499C339.992 465.263 342.994 472.515 349.314 471.093ZM676.249 562.976C678.391 562.899 680.321 561.66 681.281 559.743C682.241 557.826 682.079 555.538 680.857 553.777C679.635 552.015 677.55 551.061 675.418 551.288C672.278 551.623 669.968 554.384 670.192 557.533C670.416 560.682 673.094 563.089 676.249 562.976ZM466.766 680.445C468.68 679.787 470.081 678.135 470.419 676.14C470.756 674.144 469.977 672.123 468.386 670.872C466.795 669.621 464.648 669.339 462.788 670.137C460.055 671.309 458.74 674.433 459.81 677.207C460.881 679.981 463.954 681.412 466.766 680.445ZM673.609 460.153C670.73 461.37 669.332 464.648 670.445 467.568C671.557 470.489 674.782 472.005 677.741 470.998C679.753 470.314 681.23 468.586 681.593 466.493C681.956 464.399 681.146 462.275 679.482 460.953C677.818 459.632 675.566 459.325 673.609 460.153Z"/><path fill="#E07A5F" d="M271.668 508.474C273.751 501.476 280.262 496.74 287.561 496.913C294.86 497.086 301.14 502.125 302.89 509.213C304.64 516.301 301.427 523.683 295.047 527.233C288.667 530.783 280.701 529.622 275.6 524.399C271.497 520.197 269.992 514.102 271.668 508.474Z"/><path fill="#E07A5F" d="M281.693 506.45C290.447 499.756 300.824 513.983 291.573 521.44C282.22 524.467 276.304 515.151 281.693 506.45Z"/><path fill="#E07A5F" d="M281.693 506.45C290.447 499.756 300.824 513.983 291.573 521.44C291.52 519.963 291.46 519.16 291.269 517.698C288.512 514.395 288.214 514.756 289.854 511.039C288.587 509.186 284.7 509.021 281.693 506.45Z"/><path fill="#E07A5F" d="M510.622 271.403C519.501 270.337 527.548 276.708 528.548 285.595C529.547 294.481 523.116 302.481 514.222 303.414C505.422 304.337 497.525 297.988 496.536 289.195C495.547 280.402 501.837 272.458 510.622 271.403ZM512.243 292.665C515.255 292.558 517.602 290.015 517.467 287.004C517.333 283.993 514.769 281.669 511.759 281.831C508.788 281.99 506.499 284.514 506.632 287.488C506.765 290.461 509.269 292.771 512.243 292.665Z"/><path fill="#E07A5F" d="M731.947 497.248C740.387 494.996 749.044 500.061 751.215 508.523C753.386 516.984 748.238 525.592 739.756 527.682C731.389 529.744 722.922 524.68 720.78 516.332C718.638 507.985 723.62 499.47 731.947 497.248Z"/><path fill="#DF845F" d="M733.707 507.378C736.453 506.29 739.562 507.625 740.664 510.365C741.767 513.105 740.448 516.221 737.714 517.339C734.959 518.464 731.814 517.134 730.703 514.372C729.592 511.611 730.94 508.473 733.707 507.378Z"/><path fill="#E07A5F" d="M509.03 722.722C517.154 720.983 525.157 726.131 526.944 734.244C528.73 742.358 523.629 750.391 515.526 752.224C507.356 754.072 499.243 748.92 497.442 740.74C495.641 732.56 500.84 724.476 509.03 722.722ZM514.639 744.122C516.398 743.389 517.625 741.765 517.849 739.872C518.073 737.98 517.26 736.113 515.721 734.989C514.182 733.865 512.157 733.658 510.422 734.447C507.799 735.641 506.619 738.718 507.77 741.359C508.921 744.001 511.979 745.231 514.639 744.122Z"/><path fill="#3D405B" d="M624.552 393.186C625.9 392.632 627.443 392.861 628.571 393.782C629.7 394.703 630.233 396.169 629.961 397.6C629.688 399.031 628.653 400.198 627.265 400.64C625.236 401.286 623.059 400.216 622.331 398.215C621.603 396.214 622.583 393.995 624.552 393.186Z"/><path fill="#3D405B" d="M629.222 622.44C630.561 621.749 632.172 621.844 633.421 622.688C634.67 623.532 635.359 624.99 635.219 626.491C635.078 627.992 634.129 629.297 632.745 629.894C630.704 630.773 628.333 629.878 627.383 627.868C626.433 625.859 627.246 623.459 629.222 622.44Z"/><path fill="#3D405B" d="M394.433 392.669C396.775 392.212 399.05 393.719 399.543 396.054C400.035 398.389 398.561 400.687 396.234 401.213C394.698 401.561 393.093 401.054 392.035 399.887C390.977 398.72 390.63 397.073 391.126 395.578C391.623 394.083 392.887 392.971 394.433 392.669Z"/><path fill="#3D405B" d="M393.824 622.016C400.185 621.482 401.111 625.68 397.577 629.916C391.936 629.921 390.287 626.423 393.824 622.016Z"/><path fill="#E07A5F" d="M311.056 432.296C313.752 432.265 316.732 432.426 319.45 432.514C314.796 436.325 310.274 440.692 306 444.943C289.537 461.318 272.768 477.385 256.404 493.856C250.517 499.782 245.294 506.324 239.616 512.376C246.613 517.964 257.39 530.263 264.467 537.171C282.208 554.486 304.584 574.125 320.826 592.294C317.704 592.51 314.418 592.269 311.281 592.128C285.134 565.718 257.509 539.164 232.013 512.27C236.975 505.753 252.291 490.964 259.01 484.071C270.13 472.561 281.406 461.202 292.834 449.997C298.522 444.361 305.092 437.391 311.056 432.296Z"/><path fill="#E07A5F" d="M431.966 703.235C450.367 723.965 470.752 742.853 489.835 762.958C497.333 770.858 506.004 777.738 513.23 786.024C520.093 779.255 527.602 772.944 534.383 766.269C543.315 757.477 552.3 748.163 561.053 739.151C567.693 732.251 574.28 725.299 580.813 718.297C583.795 715.124 588.208 710.098 591.315 707.475C591.406 709.797 591.608 711.608 591.872 713.896C565.851 740.701 539.474 767.157 512.747 793.257C507.43 788.634 501.774 782.666 496.685 777.622L470.1 751.412L447.105 728.723C442.042 723.718 436.426 718.518 432.001 713.008L431.966 703.235Z"/><path fill="#E07A5F" d="M709.293 432.391C711.745 432.15 713.738 431.546 715.433 433.09C721.606 438.713 727.209 445.145 733.229 450.98C753.787 471.011 774.081 491.313 794.106 511.878C790.814 515.431 787.514 519.003 784.057 522.395C760.526 545.481 736.674 568.683 713.614 592.229C711.451 592.31 709.571 592.568 707.535 591.923C729.107 569.09 752.061 547.76 774.011 525.34C778.568 520.686 782.893 515.737 787.818 511.471C768.577 491.206 748.169 472.887 728.601 453.024C723.99 448.343 712.286 437.278 709.293 432.391Z"/><path fill="#E07A5F" d="M322.056 603.652C325.001 603.574 327.949 603.559 330.895 603.606C353.33 624.814 374.522 648.086 396.742 669.604C402.025 674.72 415.226 689.117 420.515 692.551L420.683 701.849C389.028 668.695 354.739 635.902 322.056 603.652Z"/><path fill="#E07A5F" d="M327.537 420.667C326.219 420.884 324.675 421.133 323.709 420.233C326.442 416.289 419.243 324.667 419.358 324.612L420.057 325.118L420.285 327.751C412.717 337.387 401.793 348.109 393.05 356.974C378.01 372.219 362.741 387.236 347.249 402.021C340.792 408.158 333.609 414.298 327.537 420.667Z"/><path fill="#E07A5F" d="M604.572 327.416C604.534 325.644 604.168 325.207 605.045 324.27C605.457 324.433 702.156 419.877 702.224 420.089C701.095 420.825 701.648 420.514 699.963 420.517C685.818 410.136 668.273 393.031 655.844 380.694C638.188 363.488 621.088 345.72 604.572 327.416Z"/><path fill="#E07A5F" d="M697.484 604.001L701.166 603.979L701.296 604.54C696.832 609.582 690.314 615.801 685.423 620.72L656.941 649.297L625.754 680.002C618.776 686.949 611.255 694.999 603.974 701.475L603.5 701.208C603.426 699.42 603.362 698.267 603.508 696.493C611.173 689.74 618.54 681.388 626.021 674.276C650.252 651.238 672.596 626.348 697.484 604.001Z"/><path fill="#E07A5F" d="M512.222 231.119L515.344 233.907L513.766 235.505C499.002 250.13 484.577 264.85 470.114 279.768C457.989 292.275 445.034 304.269 432.478 316.386C432.391 315.457 432.358 314.524 432.379 313.592C432.401 312.471 432.369 311.642 433.082 310.759C440.114 302.052 449.169 293.837 457.054 285.9L512.222 231.119Z"/><defs><linearGradient id="gradient_0" gradientUnits="userSpaceOnUse" x1="548.59888" y1="289.75781" x2="562.90112" y2="264.74219"><stop offset="0" stop-color="#E07A5F"/><stop offset="1" stop-color="#DF8F5F"/></linearGradient></defs><path fill="url(#gradient_0)" d="M515.344 233.907C530.828 248.677 545.88 264.26 560.91 279.504C570.955 289.693 582.21 299.979 591.894 310.4C592.095 312.401 592.461 314.878 592.25 316.831C576.713 302.45 563.658 288.032 549.138 272.608L513.766 235.505L515.344 233.907Z"/><path fill="#433D5B" d="M434.41 727.574L434.998 728.272C434.532 729.211 434.571 729.111 434.236 730.155C435.869 731.574 438.719 734.064 437.472 736.195C435.928 736.151 435.628 736.213 434.189 736.777C433.539 735.613 433.798 734.966 434.033 733.955C434.836 733.928 435.242 733.898 436.071 733.816C434.48 731.008 433.191 732.722 431.954 730.041C432.722 728.296 432.538 728.814 434.41 727.574Z"/><path fill="#433D5B" d="M589.688 290.467C591.948 291.334 603.394 303.522 604.671 306.169C602.253 304.557 590.199 292.895 589.688 290.467Z"/><path fill="#433D5B" d="M261.377 560.169C263.04 561.412 270.074 569.329 271.239 570.985L270.619 571.685C268.548 569.226 265.491 565.673 263.044 563.406C261.978 563.103 261.09 562.851 260.381 562.65L260.07 561.804L261.377 560.169Z"/><path fill="#433D5B" d="M276.727 577.739L277.461 577.517C279.888 579.532 282.903 581.597 284.621 584.109C282.463 583.703 277.681 579.756 276.727 577.739Z"/><path fill="#433D5B" d="M528.682 228.922C529.989 229.579 534.143 233.582 535.46 234.791L535.391 235.5L534.674 235.549C532.757 234.09 529.222 231.222 528.682 228.922Z"/><path fill="#433D5B" d="M520.157 220.794C522.164 221.132 525.63 225.587 527.086 227.288L525.736 227.101C522.943 225.175 521.939 223.705 520.157 220.794Z"/><path fill="#433D5B" d="M727.607 430.296C730.225 430.988 732.047 433.132 733.545 435.276C730.764 434.907 728.904 432.578 727.607 430.296Z"/><path fill="#433D5B" d="M245.779 545.61C248.053 547.378 250.217 548.979 251.413 551.576C249.455 550.869 246.092 547.725 245.779 545.61Z"/><path fill="#433D5B" d="M467.868 767.365C469.936 767.968 470.773 769.855 472.054 771.731L470.492 771.927C468.726 770.766 468.406 769.334 467.868 767.365Z"/><path fill="#433D5B" d="M653.841 356.396C654.943 357.003 654.905 357.11 655.699 358.122C655.288 359.813 654.96 359.602 653.33 361.029C652.584 360.975 652.963 361.098 652.25 360.513C654.184 357.963 654.053 358.938 653.841 356.396Z"/><path fill="#433D5B" d="M531.489 236.462C534.119 237.657 535.306 238.562 535.623 241.474C533.931 240.454 532.28 238.3 531.489 236.462Z"/><path fill="#433D5B" d="M228.515 529.359C231.443 530.074 233.067 531.704 234.725 534.14C232.834 533.729 229.825 530.788 228.515 529.359Z"/><path fill="#433D5B" d="M283.612 584.499C285.019 584.509 285.444 584.339 286.553 585.154C286.632 586.182 286.677 587.133 286.716 588.163L285.951 588.135C285.577 587.342 285.489 587.159 284.975 586.428L283.612 584.499Z"/><path fill="#433D5B" d="M288.268 589.655L288.994 589.783C290.597 591.346 290.989 591.527 291.662 593.567C289.757 592.378 289.197 592.179 287.848 590.463L288.268 589.655Z"/><path fill="#433D5B" d="M571.632 276.3C573.979 276.621 575.142 278.318 576.402 280.115C573.964 279.57 573.181 278.214 571.632 276.3Z"/></svg>